<svg width="116" height="30" viewBox="0 0 116 30" fill="none" xmlns="http://www.w3.org/2000/svg">
<g clip-path="url(#clip0_202_2842)">
<path d="M11.8048 14.9204H5.91684C2.64823 14.9204 -0.000244141 17.5911 -0.000244141 20.8872V23.8706C-0.000244141 27.1666 2.64823 29.8374 5.91684 29.8374V20.8546C5.91684 17.5781 8.55562 14.9204 11.8048 14.9204Z" fill="#BC9B6A"/>
<path d="M23.64 0.000244141H17.7552C14.4866 0.000244141 11.8382 2.67096 11.8382 5.96702V23.9032C11.8382 27.1797 9.19937 29.8374 5.95337 29.8374H11.8382C15.1068 29.8374 17.7552 27.1667 17.7552 23.8706V5.93445C17.7552 2.66119 20.394 0.000244141 23.64 0.000244141Z" fill="#BC9B6A"/>
<path d="M29.589 8.95041V5.96702C29.589 2.67096 26.9406 0.000244141 23.6719 0.000244141V8.98298C23.6719 12.2595 21.0332 14.9172 17.7839 14.9172H23.6719C26.9406 14.9204 29.589 12.2465 29.589 8.95041Z" fill="#BC9B6A"/>
<path d="M40.7728 14.8193H40.2238V6.30884H40.7728C42.1552 6.30884 43.4375 6.63454 43.4375 10.6015C43.4375 14.6044 42.1165 14.8193 40.7728 14.8193ZM40.7728 6.146H37.2878V6.30884C37.8369 6.30884 38.1211 7.10029 38.1211 7.87871V13.2625C38.1211 14.1158 37.8208 14.8193 37.2878 14.8193V14.9822H40.7728C43.2501 14.9822 46.0892 14.2656 46.0892 10.6015C46.0892 6.92441 43.2501 6.146 40.7728 6.146Z" fill="#BC9B6A"/>
<path d="M54.4161 6.30884C56.0698 6.30884 55.3754 8.54313 55.2236 8.84277C55.0492 9.23035 54.3257 10.7253 54.3257 10.7253L52.5331 7.72563C51.6869 6.28279 52.1972 6.29582 52.5687 6.29582V6.146H48.709V6.29582C49.032 6.30884 49.3065 6.3349 49.8524 7.28594C49.8524 7.28594 50.4499 8.25326 52.2812 11.5167V13.5133C52.2812 14.3666 52.0454 14.8193 51.5222 14.8193V14.9822H55.1558V14.8193C54.6325 14.8193 54.4097 14.3666 54.4097 13.5133V10.8784L55.3302 8.98282C56.4639 6.70945 57.5329 6.30884 58.082 6.30884V6.146H54.4097V6.30884H54.4161Z" fill="#BC9B6A"/>
<path d="M67.1096 6.30884C68.6534 6.29582 68.8504 8.56919 68.8504 9.14567V12.3473L64.2189 6.146H60.708V6.30884C61.031 6.3349 61.4541 6.25999 62.226 7.25011L62.7622 7.97642V11.9695C62.7622 12.471 62.6491 14.8193 60.8437 14.8193V14.9822H64.7162V14.8193C62.9495 14.8193 62.9237 12.471 62.9237 11.9695V8.16532L67.9945 14.9822H69.0152V9.14567C69.0152 8.56919 69.1637 6.29582 70.882 6.30884V6.146H67.1096V6.30884Z" fill="#BC9B6A"/>
<path d="M75.911 12.3701L77.1448 9.11961L78.5142 12.3701H75.911ZM81.547 13.852C81.547 13.852 81.3856 13.4742 78.2849 6.146H78.1493L75.8076 12.2072C74.7256 14.8063 74.2282 14.8063 73.8794 14.8323V14.9822H77.2029V14.8323C75.4717 14.8812 75.7462 12.8228 75.8722 12.5362H78.5724L78.9567 13.4286C78.9567 13.4286 79.6544 14.8356 78.6693 14.8356V14.9822H82.6291V14.8323C82.3448 14.8063 81.9831 14.8551 81.547 13.852Z" fill="#BC9B6A"/>
<path d="M88.5566 14.9304C86.4766 14.9304 85.5819 12.7841 85.3461 11.9796H85.1847V14.3898C85.1847 14.3898 86.1439 15.0933 88.5566 15.0933C90.6366 15.0933 91.2697 14.0641 91.2697 14.0641C92.2031 12.6962 91.6444 11.2142 90.0004 10.1231L88.0851 8.84316C86.4669 7.77487 86.9029 6.19524 88.2466 6.19524C90.2394 6.19524 90.9112 7.95075 91.1599 8.73242H91.3214V6.62516C91.3214 6.62516 90.375 6.03564 88.2466 6.03564C86.2408 6.03564 85.5949 6.98994 85.5949 6.98994C84.5484 8.34484 85.0975 9.73883 86.8642 10.856L88.7795 12.0741C90.2878 13.188 89.8873 14.9304 88.5566 14.9304Z" fill="#BC9B6A"/>
<path d="M98.6489 6.30884V13.5133C98.6489 14.3666 98.3485 14.8193 97.8382 14.8193V14.9822H101.633V14.8193C101.123 14.8193 100.823 14.3666 100.823 13.5133V6.30884H101.01C101.52 6.30884 103.771 6.97327 103.849 8.81997H104.01V6.146H95.4578V8.81997H95.6193C95.6935 6.97652 97.9351 6.30884 98.4583 6.30884H98.6489Z" fill="#BC9B6A"/>
<path d="M112.328 6.146V6.30884C113.982 6.30884 113.287 8.54313 113.136 8.84277C112.961 9.23361 112.241 10.7253 112.241 10.7253L110.448 7.72563C109.602 6.28279 110.112 6.29582 110.487 6.29582V6.146H106.627V6.29582C106.95 6.30884 107.225 6.33164 107.771 7.28594C107.771 7.28594 108.368 8.25326 110.2 11.5167V13.5133C110.2 14.3666 109.964 14.8193 109.441 14.8193V14.9822H113.074V14.8193C112.551 14.8193 112.328 14.3666 112.328 13.5133V10.8784L113.249 8.98282C114.382 6.70945 115.451 6.30884 116 6.30884V6.146H112.328Z" fill="#BC9B6A"/>
<path d="M28.7682 25.9453H28.5454V21.2129H28.7682C30.2249 21.2129 30.8838 21.1999 30.8838 23.584C30.8838 25.9095 30.2992 25.9453 28.7682 25.9453ZM28.7682 21.05H25.6191V21.2129C26.1682 21.2129 26.3911 21.6884 26.3911 22.4668V28.4304C26.3911 29.2837 26.2167 29.7234 25.6934 29.7234V29.8862H29.7889V29.7234C29.1655 29.7234 28.5454 29.6843 28.5454 28.1665V26.1081H28.7682C31.2455 26.1081 33.3482 25.8052 33.3482 23.584C33.3514 21.3529 31.2455 21.05 28.7682 21.05Z" fill="#BC9B6A"/>
<path d="M37.8667 27.2775L39.1005 24.0271L40.47 27.2775H37.8667ZM43.506 28.7595C43.506 28.7595 43.3445 28.3817 40.2439 21.0535H40.1082L37.7666 27.118C36.6846 29.717 36.1872 29.717 35.8384 29.7398V29.8896H39.1619V29.7366C37.4307 29.7854 37.7052 27.727 37.8312 27.4404H40.5314L40.9189 28.3328C40.9189 28.3328 41.6166 29.7398 40.6315 29.7398V29.8896H44.588V29.7366C44.3038 29.7105 43.9421 29.7626 43.506 28.7595Z" fill="#BC9B6A"/>
<path d="M51.1956 25.6717H50.808V21.2129H51.1956C52.5263 21.2129 53.1884 21.164 53.1884 23.4472C53.1884 25.6815 52.6167 25.6717 51.1956 25.6717ZM55.5785 28.3685C54.981 26.1081 54.1089 25.6815 52.9882 25.7206C54.3318 25.6326 55.6657 25.1571 55.6657 23.4472C55.6657 21.3497 53.6729 21.05 51.1956 21.05H47.885V21.2129C48.4341 21.2129 48.6569 21.5516 48.6569 22.33V28.4173C48.6569 29.4824 48.4212 29.7234 47.885 29.7234V29.8862H51.5573V29.7234C51.0341 29.7234 50.8113 29.4596 50.8113 28.4173V25.8313H51.3959C51.3959 25.8313 52.7136 25.7955 53.0011 27.0755C53.5728 29.5996 53.5599 29.8862 55.1166 29.8862H56.9221V29.7234C56.5991 29.6973 55.8272 29.3228 55.5785 28.3685Z" fill="#BC9B6A"/>
<path d="M59.8846 23.724H60.0461C60.1204 21.8773 62.3619 21.2129 62.8851 21.2129H63.0724V28.4173C63.0724 29.2707 62.7721 29.7234 62.2618 29.7234V29.8862H66.0568V29.7234C65.5465 29.7234 65.2461 29.2707 65.2461 28.4173V21.2129H65.4335C65.9438 21.2129 68.195 21.8773 68.2725 23.724H68.434V21.05H59.8813V23.724H59.8846Z" fill="#BC9B6A"/>
<path d="M78.0194 21.2129C79.5633 21.1999 79.7635 23.4732 79.7635 24.0497V27.2513L75.1319 21.05H71.6211V21.2129C71.9441 21.239 72.3672 21.164 73.1391 22.1542L73.6753 22.8805V26.8735C73.6753 27.3751 73.5622 29.7234 71.7567 29.7234V29.8862H75.6293V29.7234C73.8626 29.7234 73.8368 27.3751 73.8368 26.8735V23.0726L78.9012 29.8895H79.9218V24.0497C79.9218 23.4732 80.0704 21.1999 81.7887 21.2129V21.05H78.0162V21.2129H78.0194Z" fill="#BC9B6A"/>
<path d="M88.5003 29.7234H88.0514V25.5056H88.7846C88.7846 25.5056 90.3898 25.4926 90.5255 26.8996H90.6869V23.9488H90.5255C90.3898 25.3688 88.7846 25.3427 88.7846 25.3427H88.0514V21.2129H88.5003C88.5003 21.2129 91.8852 21.2259 92.037 23.5351H92.1985V21.05H85.2156V21.2129C85.7647 21.2129 85.9358 22.0043 85.9358 22.7828V28.1665C85.9358 29.0199 85.7356 29.7234 85.2156 29.7234V29.8862H92.36V27.2872H92.1985C91.9337 29.7983 88.5003 29.7234 88.5003 29.7234Z" fill="#BC9B6A"/>
<path d="M99.5409 25.6717H99.1533V21.2129H99.5409C100.872 21.2129 101.534 21.164 101.534 23.4472C101.53 25.6815 100.959 25.6717 99.5409 25.6717ZM103.921 28.3685C103.323 26.1081 102.451 25.6815 101.33 25.7206C102.674 25.6326 104.008 25.1571 104.008 23.4472C104.008 21.3497 102.015 21.05 99.5376 21.05H96.2271V21.2129C96.7761 21.2129 96.999 21.5516 96.999 22.33V28.4173C96.999 29.4824 96.7632 29.7234 96.2271 29.7234V29.8862H99.8994V29.7234C99.3762 29.7234 99.1533 29.4596 99.1533 28.4173V25.8313H99.7379C99.7379 25.8313 101.056 25.7955 101.343 27.0755C101.915 29.5996 101.902 29.8862 103.459 29.8862H105.264V29.7234C104.941 29.6973 104.169 29.3228 103.921 28.3685Z" fill="#BC9B6A"/>
<path d="M113.568 25.0302L111.65 23.7502C110.031 22.6852 110.467 21.1023 111.811 21.1023C113.804 21.1023 114.476 22.8611 114.724 23.6395H114.886V21.529C114.886 21.529 113.939 20.9395 111.811 20.9395C109.809 20.9395 109.159 21.8937 109.159 21.8937C108.113 23.2486 108.662 24.6426 110.429 25.7598L112.347 26.9779C113.852 28.095 113.455 29.8408 112.121 29.8408C110.044 29.8408 109.146 27.6944 108.911 26.8899H108.749V29.3001C108.749 29.3001 109.708 30.0036 112.121 30.0036C114.201 30.0036 114.834 28.9744 114.834 28.9744C115.771 27.6032 115.209 26.1213 113.568 25.0302Z" fill="#BC9B6A"/>
</g>
<defs>
<clipPath id="clip0_202_2842">
<rect width="116" height="30" fill="white"/>
</clipPath>
</defs>
</svg>
